<svg width="34" height="34" viewBox="0 0 34 34" fill="none" xmlns="http://www.w3.org/2000/svg">
<rect width="34" height="34" rx="17" fill="black"/>
<path d="M17 25.9583C12.06 25.9583 8.04163 21.94 8.04163 17C8.04163 12.06 12.06 8.04167 17 8.04167C21.94 8.04167 25.9583 12.06 25.9583 17C25.9583 21.94 21.94 25.9583 17 25.9583ZM17 9.29167C12.75 9.29167 9.29163 12.75 9.29163 17C9.29163 21.25 12.75 24.7083 17 24.7083C21.25 24.7083 24.7083 21.25 24.7083 17C24.7083 12.75 21.25 9.29167 17 9.29167Z" fill="#1D9BF0"/>
<path d="M16.9999 21.2625C15.4233 21.2625 13.9724 20.4708 13.1199 19.1425C12.9333 18.8525 13.0174 18.4675 13.3083 18.28C13.5983 18.0917 13.9849 18.1767 14.1716 18.4683C14.7941 19.4367 15.8516 20.0142 17.0008 20.0142C18.1499 20.0142 19.2074 19.4367 19.8308 18.4692C20.0174 18.1775 20.4041 18.0942 20.6941 18.2817C20.9858 18.4683 21.0691 18.855 20.8824 19.145C20.0283 20.4733 18.5774 21.2658 17.0008 21.2658L16.9999 21.2625Z" fill="#1D9BF0"/>
<path d="M19.2816 16.1133C19.9618 16.1133 20.5133 15.5619 20.5133 14.8817C20.5133 14.2014 19.9618 13.65 19.2816 13.65C18.6014 13.65 18.0499 14.2014 18.0499 14.8817C18.0499 15.5619 18.6014 16.1133 19.2816 16.1133Z" fill="#1D9BF0"/>
<path d="M14.7182 16.1133C15.3985 16.1133 15.9499 15.5619 15.9499 14.8817C15.9499 14.2014 15.3985 13.65 14.7182 13.65C14.038 13.65 13.4866 14.2014 13.4866 14.8817C13.4866 15.5619 14.038 16.1133 14.7182 16.1133Z" fill="#1D9BF0"/>
</svg>
