<svg width="24" height="20" viewBox="0 0 24 20" fill="none" xmlns="http://www.w3.org/2000/svg">
<path d="M23.643 2.937C22.808 3.307 21.911 3.557 20.968 3.67C21.93 3.094 22.668 2.18 23.016 1.092C22.116 1.626 21.119 2.014 20.058 2.222C19.208 1.318 17.998 0.751999 16.658 0.751999C14.086 0.751999 12 2.838 12 5.412C12 5.776 12.042 6.13 12.12 6.472C8.24701 6.277 4.81601 4.422 2.51801 1.604C2.11801 2.294 1.88801 3.094 1.88801 3.946C1.88801 5.562 2.71101 6.989 3.96001 7.824C3.19601 7.799 2.47801 7.59 1.85001 7.241V7.301C1.85001 9.558 3.45501 11.441 5.58701 11.869C5.19501 11.975 4.78401 12.031 4.36001 12.031C4.06001 12.031 3.76701 12.003 3.48301 11.949C4.07601 13.799 5.79601 15.147 7.83501 15.183C6.24001 16.433 4.23101 17.178 2.04901 17.178C1.67301 17.178 1.30201 17.156 0.937012 17.113C2.99901 18.436 5.44701 19.206 8.07701 19.206C16.647 19.206 21.332 12.108 21.332 5.952C21.332 5.752 21.327 5.55 21.318 5.35C22.228 4.692 23.018 3.873 23.641 2.94L23.643 2.937Z" fill="#D9D9D9"/>
</svg>
