<svg width="20" height="20" viewBox="0 0 20 20" fill="none" xmlns="http://www.w3.org/2000/svg">
<path d="M19 5.33698H15.07L15.442 1.06498C15.478 0.652982 15.172 0.289982 14.76 0.252982C14.343 0.222982 13.984 0.522982 13.948 0.935982L13.565 5.33598H7.245L7.615 1.06598C7.652 0.652982 7.345 0.289982 6.935 0.252982C6.515 0.222982 6.158 0.522982 6.122 0.935982L5.74 5.33598H1.782C1.368 5.33598 1.032 5.67298 1.032 6.08598C1.032 6.49898 1.368 6.83598 1.782 6.83598H5.61L5.06 13.163H1C0.586 13.163 0.25 13.499 0.25 13.913C0.25 14.327 0.586 14.663 1 14.663H4.93L4.558 18.935C4.522 19.347 4.828 19.71 5.24 19.747L5.306 19.75C5.691 19.75 6.018 19.455 6.052 19.064L6.435 14.664H12.755L12.385 18.934C12.349 19.347 12.655 19.71 13.067 19.747L13.133 19.75C13.518 19.75 13.845 19.455 13.879 19.064L14.261 14.664H18.218C18.631 14.664 18.968 14.327 18.968 13.914C18.968 13.501 18.631 13.164 18.218 13.164H14.39L14.94 6.83698H19C19.414 6.83698 19.75 6.50098 19.75 6.08698C19.75 5.67298 19.414 5.33698 19 5.33698ZM12.885 13.163H6.565L7.115 6.83698H13.435L12.885 13.163Z" fill="#D9D9D9"/>
</svg>
