<svg width="34" height="34" viewBox="0 0 34 34" fill="none" xmlns="http://www.w3.org/2000/svg">
<rect width="34" height="34" rx="17" fill="black"/>
<path d="M23.4583 8.66667H10.5416C9.50829 8.66667 8.66663 9.50834 8.66663 10.5417V23.4583C8.66663 24.4917 9.50829 25.3333 10.5416 25.3333H23.4583C24.4916 25.3333 25.3333 24.4917 25.3333 23.4583V10.5417C25.3333 9.50834 24.4916 8.66667 23.4583 8.66667ZM10.5416 9.91667H23.4583C23.8025 9.91667 24.0833 10.1975 24.0833 10.5417V18.605L20.8683 15.39C20.7516 15.2733 20.5933 15.2067 20.4266 15.2067H20.4241C20.2575 15.2067 20.0966 15.2733 19.9808 15.3933L16.3833 19.0467L14.8725 17.5417C14.7558 17.425 14.5975 17.3583 14.4308 17.3583C14.27 17.3333 14.1016 17.425 13.985 17.5475L9.91663 21.7017V10.5417C9.91663 10.1975 10.1975 9.91667 10.5416 9.91667ZM9.92163 23.4833L14.4366 18.8717L19.6716 24.0833H10.5416C10.2066 24.0833 9.93579 23.815 9.92163 23.4833ZM23.4583 24.0833H21.4416L17.2691 19.9275L20.4291 16.7192L24.0833 20.3725V23.4583C24.0833 23.8025 23.8025 24.0833 23.4583 24.0833Z" fill="#1D9BF0"/>
<path d="M14.39 15.2092C15.0997 15.2092 15.675 14.6339 15.675 13.9242C15.675 13.2145 15.0997 12.6392 14.39 12.6392C13.6803 12.6392 13.105 13.2145 13.105 13.9242C13.105 14.6339 13.6803 15.2092 14.39 15.2092Z" fill="#1D9BF0"/>
</svg>
