<svg width="14" height="12" viewBox="0 0 14 12" fill="none" xmlns="http://www.w3.org/2000/svg">
<path d="M5.12089 0.247873L0.211514 5.33688C-0.076176 5.6351 -0.0676437 6.11002 0.230554 6.39671L5.31956 11.3061C5.6178 11.5948 6.09272 11.5862 6.37939 11.287C6.66606 10.9879 6.65957 10.5149 6.36035 10.2272L2.57413 6.57464L12.7625 6.3916C13.1764 6.38416 13.5063 6.04218 13.4989 5.62825C13.4915 5.21432 13.1495 4.88441 12.7355 4.89184L2.54718 5.07488L6.19976 1.28866C6.34412 1.14005 6.41366 0.946765 6.41021 0.754796C6.40676 0.562827 6.33132 0.37215 6.18072 0.228833C5.88251 -0.0588573 5.40858 -0.0503429 5.12089 0.247873Z" fill="#D9D9D9"/>
</svg>
