<svg width="20" height="19" viewBox="0 0 20 19" fill="none" xmlns="http://www.w3.org/2000/svg">
<path d="M17.25 0.0180054H2.75C1.233 0.0180054 0 1.25201 0 2.77001V15.265C0 16.783 1.233 18.018 2.75 18.018H17.25C18.767 18.018 20 16.783 20 15.265V2.77001C20 1.25201 18.767 0.0180054 17.25 0.0180054ZM2.75 1.51801H17.25C17.94 1.51801 18.5 2.07801 18.5 2.76801V3.48201L10.45 8.84901C10.177 9.02901 9.824 9.03101 9.55 8.84701L1.5 3.48201V2.76801C1.5 2.07801 2.06 1.51801 2.75 1.51801ZM17.25 16.516H2.75C2.06 16.516 1.5 15.956 1.5 15.266V5.24001L8.74 10.07C9.123 10.326 9.562 10.454 10 10.454C10.44 10.454 10.877 10.326 11.26 10.071L18.5 5.24101V15.263C18.5 15.953 17.94 16.513 17.25 16.513V16.516Z" fill="#D9D9D9"/>
</svg>
