<svg width="22" height="22" viewBox="0 0 22 22" fill="none" xmlns="http://www.w3.org/2000/svg">
<path d="M16 12.5C16.8284 12.5 17.5 11.8284 17.5 11C17.5 10.1716 16.8284 9.5 16 9.5C15.1716 9.5 14.5 10.1716 14.5 11C14.5 11.8284 15.1716 12.5 16 12.5Z" fill="#D9D9D9"/>
<path d="M11 12.5C11.8284 12.5 12.5 11.8284 12.5 11C12.5 10.1716 11.8284 9.5 11 9.5C10.1716 9.5 9.5 10.1716 9.5 11C9.5 11.8284 10.1716 12.5 11 12.5Z" fill="#D9D9D9"/>
<path d="M6 12.5C6.82843 12.5 7.5 11.8284 7.5 11C7.5 10.1716 6.82843 9.5 6 9.5C5.17157 9.5 4.5 10.1716 4.5 11C4.5 11.8284 5.17157 12.5 6 12.5Z" fill="#D9D9D9"/>
<path d="M11 21.75C5.072 21.75 0.25 16.928 0.25 11C0.25 5.072 5.072 0.25 11 0.25C16.928 0.25 21.75 5.072 21.75 11C21.75 16.928 16.928 21.75 11 21.75ZM11 1.75C5.9 1.75 1.75 5.9 1.75 11C1.75 16.1 5.9 20.25 11 20.25C16.1 20.25 20.25 16.1 20.25 11C20.25 5.9 16.1 1.75 11 1.75Z" fill="#D9D9D9"/>
</svg>
