<svg width="20" height="21" viewBox="0 0 20 21" fill="none" xmlns="http://www.w3.org/2000/svg">
<path d="M19.697 15.468C19.677 15.452 17.557 13.828 17.594 9.43799C17.614 6.90599 16.782 4.65599 15.247 3.10299C13.872 1.70999 12.01 0.939993 10.005 0.929993H9.99197C7.98798 0.939993 6.12597 1.70999 4.74997 3.10399C3.21597 4.65699 2.38197 6.90599 2.40397 9.43799C2.44097 13.768 0.383975 15.405 0.301975 15.468C0.0419748 15.661 -0.0640253 15.998 0.0369747 16.306C0.138975 16.614 0.426975 16.821 0.748975 16.821H5.66897C5.77098 19.131 7.66597 20.981 9.99897 20.981C12.332 20.981 14.225 19.131 14.326 16.821H19.248C19.57 16.821 19.858 16.615 19.958 16.307C20.061 16 19.955 15.662 19.695 15.469L19.697 15.468ZM9.99998 19.478C8.49498 19.478 7.26997 18.301 7.17197 16.82H12.828C12.728 18.3 11.505 19.48 9.99998 19.48V19.478ZM2.37997 15.32C3.11997 14.188 3.92797 12.292 3.90397 9.42399C3.88597 7.26399 4.54797 5.44199 5.81697 4.15699C6.90997 3.04999 8.39698 2.43699 9.99998 2.42999C11.603 2.43799 13.087 3.04999 14.18 4.15799C15.45 5.44299 16.113 7.26399 16.095 9.42499C16.071 12.293 16.88 14.19 17.62 15.321H2.37997V15.32Z" fill="#D9D9D9"/>
</svg>
