<svg width="20" height="22" viewBox="0 0 20 22" fill="none" xmlns="http://www.w3.org/2000/svg">
<path d="M17.75 6.31H15.87C15.68 3.23 13.124 0.784 10 0.784C6.876 0.784 4.32 3.232 4.13 6.31H2.25C1.01 6.31 0 7.317 0 8.56V18.79C0 20.03 1.01 21.04 2.25 21.04H17.75C18.99 21.04 20 20.03 20 18.79V8.56C20 7.318 18.99 6.31 17.75 6.31ZM10.75 14.687V16.083C10.75 16.497 10.414 16.833 10 16.833C9.586 16.833 9.25 16.497 9.25 16.083V14.687C8.486 14.387 7.943 13.647 7.943 12.777C7.943 11.64 8.863 10.719 10 10.719C11.136 10.719 12.057 11.639 12.057 12.775C12.057 13.645 11.514 14.385 10.75 14.685V14.687ZM5.648 6.31C5.838 4.06 7.705 2.284 10 2.284C12.295 2.284 14.163 4.061 14.352 6.307H5.648V6.31Z" fill="#D9D9D9"/>
</svg>
