<svg width="34" height="34" viewBox="0 0 34 34" fill="none" xmlns="http://www.w3.org/2000/svg">
<rect width="34" height="34" rx="17" fill="black"/>
<path d="M23.8516 14.6333H22.74C22.7525 14.5583 22.7633 14.4817 22.7633 14.4025V12.475C22.7633 11.6583 22.0991 10.9942 21.2816 10.9942H9.91663V9.79834C9.91663 9.45334 9.63663 9.17334 9.29163 9.17334C8.94663 9.17334 8.66663 9.45334 8.66663 9.79834V24.3583C8.66663 24.7042 8.94663 24.9833 9.29163 24.9833C9.63663 24.9833 9.91663 24.7042 9.91663 24.3583V23.1633H18.7133C19.53 23.1633 20.195 22.4992 20.195 21.6825V19.755C20.195 19.6758 20.1833 19.5992 20.1716 19.5233H23.8525C24.6691 19.5233 25.3341 18.8583 25.3341 18.0417V16.1167C25.3341 15.2975 24.67 14.6333 23.8525 14.6333H23.8516ZM21.2833 12.2442C21.41 12.2442 21.5141 12.3475 21.5141 12.475V14.4C21.5141 14.5283 21.41 14.6333 21.2825 14.6333H9.91663V12.2417H21.2833V12.2442ZM18.9441 19.7558V21.6825C18.9441 21.81 18.84 21.9133 18.7125 21.9133H9.91663V19.5233H18.7133C18.8408 19.5233 18.9441 19.6283 18.9441 19.7567V19.7558ZM24.0833 18.0417C24.0833 18.1692 23.9791 18.2725 23.8516 18.2725H9.91663V15.8833H23.8516C23.9791 15.8833 24.0833 15.9867 24.0833 16.1142V18.0417Z" fill="#1D9BF0"/>
</svg>
