<!-- <svg width="19" height="19" viewBox="0 0 19 19" fill="none" xmlns="http://www.w3.org/2000/svg">
<path d="M9.45169 19.0952C13.3301 17.2185 16.1369 14.0148 17.6509 10.7709C19.1417 7.54043 19.3513 4.32333 18.0237 2.39307C16.8241 0.663868 15.2634 0.00704628 13.6794 0.0606634C12.0955 0.114286 10.5581 0.905158 9.45169 2.01773C8.34525 0.905158 6.8079 0.114286 5.22395 0.0606634C3.64 0.00704628 2.07935 0.663868 0.879742 2.39307C-0.447979 4.32333 -0.238339 7.54043 1.27573 10.7709C2.7665 14.0148 5.57335 17.2185 9.45169 19.0952Z" fill="#FF0000"/>
</svg> -->


<svg width="19" height="18" viewBox="0 0 19 18" fill="none" xmlns="http://www.w3.org/2000/svg">
<path d="M10.9988 18.91C15.1223 17.1169 18.1065 14.0558 19.7162 10.9563C21.3011 7.86965 21.524 4.79577 20.1125 2.95145C18.8371 1.29923 17.1777 0.671653 15.4937 0.722883C13.8097 0.774118 12.1752 1.52978 10.9988 2.59282C9.8225 1.52978 8.18801 0.774118 6.50398 0.722883C4.81994 0.671653 3.16069 1.29923 1.88528 2.95145C0.473667 4.79577 0.696553 7.86965 2.30629 10.9563C3.89125 14.0558 6.87546 17.1169 10.9988 18.91Z" fill="#FF0000"/>
</svg>
